<svg xmlns="http://www.w3.org/2000/svg" width="24" height="24" viewBox="0 0 24 24">
    <defs>
        <style>
            .prefix__cls-3{fill:#151a1d}
        </style>
    </defs>
    <g id="prefix__apple_icn" style="opacity:.95">
        <path id="prefix__사각형_8424" d="M0 0H24V24H0z" data-name="사각형 8424" style="fill:none"/>
        <g id="prefix__구성_요소_8_1" data-name="구성 요소 8 – 1" transform="translate(3)">
            <path id="prefix__패스_8014" d="M338.52 257.316a4.788 4.788 0 0 1 2.374-4.037 5.213 5.213 0 0 0-4.02-2.11c-1.714-.167-3.347.976-4.213.976s-2.211-.948-3.63-.921a5.415 5.415 0 0 0-4.553 2.66c-1.939 3.25-.5 8.066 1.4 10.7.923 1.29 2.023 2.739 3.469 2.687 1.4-.052 1.923-.869 3.607-.869s2.158.869 3.633.847c1.5-.03 2.449-1.32 3.364-2.61a11.6 11.6 0 0 0 1.525-3.023 4.713 4.713 0 0 1-2.956-4.3z" class="prefix__cls-3" data-name="패스 8014" transform="translate(-323.557 -245.273)"/>
            <path id="prefix__패스_8015" d="M394.739 214.83a5.351 5.351 0 0 0 1.271-3.895 5.464 5.464 0 0 0-3.592 1.847 5.113 5.113 0 0 0-1.3 3.778 4.529 4.529 0 0 0 3.621-1.73z" class="prefix__cls-3" data-name="패스 8015" transform="translate(-382.511 -210.935)"/>
        </g>
    </g>
</svg>
