<svg xmlns="http://www.w3.org/2000/svg" id="prefix__top_icn_facebook" width="30" height="30" viewBox="0 0 30 30">
    <path id="prefix__패스_7979" d="M23.278 2.5H3.722A1.222 1.222 0 0 0 2.5 3.722v19.556A1.222 1.222 0 0 0 3.722 24.5h10.531v-8.492h-2.875v-3.346h2.855v-2.445a4 4 0 0 1 4.268-4.4 23.987 23.987 0 0 1 2.579.147v2.977h-1.748c-1.379 0-1.645.653-1.645 1.613v2.122h3.3l-.428 3.332h-2.872V24.5h5.59a1.222 1.222 0 0 0 1.223-1.222V3.722A1.222 1.222 0 0 0 23.278 2.5z" data-name="패스 7979" transform="translate(1.5 1.5)" style="fill:#7d8593"/>
    <path id="prefix__사각형_8387" d="M0 0H30V30H0z" data-name="사각형 8387" style="fill:none"/>
</svg>
