<svg xmlns="http://www.w3.org/2000/svg" id="prefix__top_icn_mixer" width="30" height="30" viewBox="0 0 30 30">
    <defs>
        <style>
            .prefix__cls-1{fill:#7d8593;fill-rule:evenodd}
        </style>
    </defs>
    <g id="prefix__그룹_10168" data-name="그룹 10168" transform="translate(-1033.915 -196.661)">
        <path id="prefix__패스_7989" d="M1040.037 229.591a2.484 2.484 0 0 1-2.307-1.231 2.4 2.4 0 0 1 .33-2.814c1.436-1.825 2.873-3.627 4.356-5.408a1.186 1.186 0 0 0 0-1.8c-1.531-1.8-2.967-3.671-4.427-5.539a2.225 2.225 0 0 1-.047-2.924 2.552 2.552 0 0 1 2.59-.9 2.616 2.616 0 0 1 1.672 1.1c2.214 2.748 4.38 5.5 6.617 8.243a1.228 1.228 0 0 1 0 1.824c-2.237 2.726-4.4 5.5-6.594 8.243a2.915 2.915 0 0 1-2.19 1.209z" class="prefix__cls-1" data-name="패스 7989" transform="translate(0 -7.615)"/>
        <path id="prefix__패스_7991" d="M2.622 20.664a2.483 2.483 0 0 1-2.307-1.231 2.4 2.4 0 0 1 .33-2.814C2.081 14.8 3.517 12.993 5 11.212a1.186 1.186 0 0 0 0-1.8C3.47 7.607 2.034 5.739.574 3.87A2.225 2.225 0 0 1 .527.947a2.552 2.552 0 0 1 2.59-.9 2.616 2.616 0 0 1 1.672 1.1C7 3.892 9.169 6.64 11.406 9.388a1.228 1.228 0 0 1 0 1.824c-2.237 2.726-4.4 5.5-6.594 8.243a2.916 2.916 0 0 1-2.19 1.209z" class="prefix__cls-1" data-name="패스 7991" transform="rotate(180 530.207 110.988)"/>
    </g>
    <path id="prefix__사각형_8397" d="M0 0H30V30H0z" data-name="사각형 8397" style="fill:none"/>
</svg>
