<svg xmlns="http://www.w3.org/2000/svg" id="prefix__top_icn_youtube" width="30" height="30" viewBox="0 0 30 30">
    <path id="prefix__패스_3963" d="M23.046 4H6.288A4.21 4.21 0 0 0 2 8.13v8.632a4.21 4.21 0 0 0 4.288 4.128h16.758a4.21 4.21 0 0 0 4.288-4.129V8.13A4.21 4.21 0 0 0 23.046 4zm-3.238 8.962l-7.6 3.9a.585.585 0 0 1-.844-.517V8.548a.585.585 0 0 1 .844-.517l7.6 3.9a.585.585 0 0 1 0 1.041z" data-name="패스 3963" transform="translate(.333 2.555)" style="fill:#7d8593"/>
    <path id="prefix__사각형_4507" d="M0 0H30V30H0z" data-name="사각형 4507" style="fill:none"/>
</svg>
