<svg xmlns="http://www.w3.org/2000/svg" id="prefix__bg_pricing_parttern" width="1422" height="1136.778" viewBox="0 0 1422 1136.778">
    <defs>
        <style>
            .prefix__cls-1{fill:#7167ff}.prefix__cls-3{fill:#cced0c}.prefix__cls-4{fill:#1a9b9c}.prefix__cls-5{fill:#fccf22}.prefix__cls-6{fill:#01bdfd}.prefix__cls-7{fill:#fe4170}.prefix__cls-8{fill:#05b66b}
        </style>
    </defs>
    <path id="prefix__패스_8006" d="M-1.778 0H6L3.778 7.778H-4z" class="prefix__cls-1" data-name="패스 8006" transform="translate(1068 1050)"/>
    <path id="prefix__패스_8007" d="M-1.778 0H6L3.778 7.778H-4z" data-name="패스 8007" transform="translate(1271 1000)" style="fill:#f84041"/>
    <path id="prefix__패스_8028" d="M-1.778 0H6L3.778 7.778H-4z" class="prefix__cls-3" data-name="패스 8028" transform="translate(308 906)"/>
    <path id="prefix__패스_8009" d="M-1.778 0H6L3.778 7.778H-4z" class="prefix__cls-4" data-name="패스 8009" transform="translate(485 1129)"/>
    <path id="prefix__패스_8000" d="M-1.778 0H6L3.778 7.778H-4z" class="prefix__cls-5" data-name="패스 8000" transform="translate(1414 789)"/>
    <path id="prefix__패스_8027" d="M-1.778 0H6L3.778 7.778H-4z" class="prefix__cls-5" data-name="패스 8027" transform="translate(147 1044)"/>
    <path id="prefix__패스_8011" d="M-1.778 0H6L3.778 7.778H-4z" class="prefix__cls-6" data-name="패스 8011" transform="translate(376 1014)"/>
    <path id="prefix__패스_8013" d="M-1.778 0H6L3.778 7.778H-4z" class="prefix__cls-7" data-name="패스 8013" transform="translate(1371 491)"/>
    <path id="prefix__패스_8005" d="M-1.778 0H6L3.778 7.778H-4z" class="prefix__cls-8" data-name="패스 8005" transform="translate(968 914)"/>
    <path id="prefix__패스_8006-2" d="M-1.778 0H6L3.778 7.778H-4z" class="prefix__cls-1" data-name="패스 8006" transform="translate(1215 197)"/>
    <path id="prefix__패스_8008" d="M-1.778 0H6L3.778 7.778H-4z" class="prefix__cls-3" data-name="패스 8008" transform="translate(1243 38)"/>
    <path id="prefix__패스_8009-2" d="M-1.778 0H6L3.778 7.778H-4z" class="prefix__cls-4" data-name="패스 8009" transform="translate(1416 6)"/>
    <path id="prefix__패스_8011-2" d="M-1.778 0H6L3.778 7.778H-4z" class="prefix__cls-6" data-name="패스 8011" transform="translate(565)"/>
    <path id="prefix__패스_8013-2" d="M-1.778 0H6L3.778 7.778H-4z" class="prefix__cls-7" data-name="패스 8013" transform="translate(4 853)"/>
    <path id="prefix__패스_8005-2" d="M-1.778 0H6L3.778 7.778H-4z" class="prefix__cls-8" data-name="패스 8005" transform="translate(101 594)"/>
    <path id="prefix__패스_8006-3" d="M-1.778 0H6L3.778 7.778H-4z" class="prefix__cls-1" data-name="패스 8006" transform="translate(39 93)"/>
    <path id="prefix__패스_8008-2" d="M-1.778 0H6L3.778 7.778H-4z" class="prefix__cls-3" data-name="패스 8008" transform="translate(62 422)"/>
    <path id="prefix__패스_8009-3" d="M-1.778 0H6L3.778 7.778H-4z" class="prefix__cls-4" data-name="패스 8009" transform="translate(230 197)"/>
</svg>
