<svg xmlns="http://www.w3.org/2000/svg" id="prefix__main_bg_parttern_2" width="471" height="599.997" viewBox="0 0 471 599.997">
    <defs>
        <style>
            .prefix__cls-4{fill:#cced0c}
        </style>
    </defs>
    <path id="prefix__패스_8058" d="M-1.778 0H6L3.778 7.778H-4z" data-name="패스 8058" transform="translate(238 39)" style="fill:#fccf22"/>
    <path id="prefix__패스_8059" d="M-1.778 0H6L3.778 7.778H-4z" data-name="패스 8059" transform="translate(334)" style="fill:#01bdfd"/>
    <path id="prefix__패스_8060" d="M-1.778 0H6L3.778 7.778H-4z" data-name="패스 8060" transform="translate(261 90)" style="fill:#fe4170"/>
    <path id="prefix__패스_8061" d="M-1.778 0H6L3.778 7.778H-4z" class="prefix__cls-4" data-name="패스 8061" transform="translate(420 244)"/>
    <path id="prefix__패스_8062" d="M-1.778 0H6L3.778 7.778H-4z" data-name="패스 8062" transform="translate(465 313)" style="fill:#05b66b"/>
    <path id="prefix__패스_8063" d="M-1.778 0H6L3.778 7.778H-4z" data-name="패스 8063" transform="translate(233 494)" style="fill:#7167ff"/>
    <path id="prefix__패스_8065" d="M-1.778 0H6L3.778 7.778H-4z" data-name="패스 8065" transform="translate(295 518)" style="fill:#f84041"/>
    <path id="prefix__패스_8066" d="M-1.778 0H6L3.778 7.778H-4z" class="prefix__cls-4" data-name="패스 8066" transform="translate(223 558)"/>
    <path id="prefix__패스_8067" d="M-1.778 0H6L3.778 7.778H-4z" data-name="패스 8067" transform="translate(4 592.22)" style="fill:#1a9b9c"/>
    <path id="prefix__패스_8068" d="M-1.778 0H6L3.778 7.778H-4z" class="prefix__cls-4" data-name="패스 8068" transform="translate(170 64)"/>
</svg>
